<mxfile host="app.diagrams.net" agent="Mozilla/5.0 (Windows NT 10.0; Win64; x64) AppleWebKit/537.36 (KHTML, like Gecko) Chrome/138.0.0.0 Safari/537.36" version="28.0.7">
  <diagram name="Page-1" id="iY5EcwwTpfoFvMnd6nCC">
    <mxGraphModel dx="1388" dy="762" grid="1" gridSize="10" guides="1" tooltips="1" connect="1" arrows="1" fold="1" page="1" pageScale="1" pageWidth="850" pageHeight="1100" math="0" shadow="0">
      <root>
        <mxCell id="0" />
        <mxCell id="1" parent="0" />
        <mxCell id="YSEm-aiXdIfgKGm-iRfl-10" value="" style="edgeStyle=orthogonalEdgeStyle;rounded=0;orthogonalLoop=1;jettySize=auto;html=1;" edge="1" parent="1">
          <mxGeometry relative="1" as="geometry">
            <mxPoint x="430" y="190" as="sourcePoint" />
            <mxPoint x="430" y="230" as="targetPoint" />
          </mxGeometry>
        </mxCell>
        <mxCell id="YSEm-aiXdIfgKGm-iRfl-25" value="" style="edgeStyle=orthogonalEdgeStyle;rounded=0;orthogonalLoop=1;jettySize=auto;html=1;" edge="1" parent="1" source="YSEm-aiXdIfgKGm-iRfl-23" target="YSEm-aiXdIfgKGm-iRfl-24">
          <mxGeometry relative="1" as="geometry" />
        </mxCell>
        <mxCell id="YSEm-aiXdIfgKGm-iRfl-23" value="Plan" style="ellipse;whiteSpace=wrap;html=1;aspect=fixed;" vertex="1" parent="1">
          <mxGeometry x="370" y="20" width="80" height="80" as="geometry" />
        </mxCell>
        <mxCell id="YSEm-aiXdIfgKGm-iRfl-27" value="" style="edgeStyle=orthogonalEdgeStyle;rounded=0;orthogonalLoop=1;jettySize=auto;html=1;" edge="1" parent="1" source="YSEm-aiXdIfgKGm-iRfl-24" target="YSEm-aiXdIfgKGm-iRfl-26">
          <mxGeometry relative="1" as="geometry" />
        </mxCell>
        <mxCell id="YSEm-aiXdIfgKGm-iRfl-24" value="Develop" style="ellipse;whiteSpace=wrap;html=1;aspect=fixed;" vertex="1" parent="1">
          <mxGeometry x="370" y="180" width="80" height="80" as="geometry" />
        </mxCell>
        <mxCell id="YSEm-aiXdIfgKGm-iRfl-29" value="" style="edgeStyle=orthogonalEdgeStyle;rounded=0;orthogonalLoop=1;jettySize=auto;html=1;" edge="1" parent="1" source="YSEm-aiXdIfgKGm-iRfl-26" target="YSEm-aiXdIfgKGm-iRfl-28">
          <mxGeometry relative="1" as="geometry" />
        </mxCell>
        <mxCell id="YSEm-aiXdIfgKGm-iRfl-26" value="Build" style="ellipse;whiteSpace=wrap;html=1;aspect=fixed;" vertex="1" parent="1">
          <mxGeometry x="370" y="340" width="80" height="80" as="geometry" />
        </mxCell>
        <mxCell id="YSEm-aiXdIfgKGm-iRfl-31" value="" style="edgeStyle=orthogonalEdgeStyle;rounded=0;orthogonalLoop=1;jettySize=auto;html=1;" edge="1" parent="1" source="YSEm-aiXdIfgKGm-iRfl-28" target="YSEm-aiXdIfgKGm-iRfl-30">
          <mxGeometry relative="1" as="geometry" />
        </mxCell>
        <mxCell id="YSEm-aiXdIfgKGm-iRfl-28" value="Test" style="ellipse;whiteSpace=wrap;html=1;aspect=fixed;" vertex="1" parent="1">
          <mxGeometry x="370" y="500" width="80" height="80" as="geometry" />
        </mxCell>
        <mxCell id="YSEm-aiXdIfgKGm-iRfl-33" value="" style="edgeStyle=orthogonalEdgeStyle;rounded=0;orthogonalLoop=1;jettySize=auto;html=1;" edge="1" parent="1" source="YSEm-aiXdIfgKGm-iRfl-30" target="YSEm-aiXdIfgKGm-iRfl-32">
          <mxGeometry relative="1" as="geometry" />
        </mxCell>
        <mxCell id="YSEm-aiXdIfgKGm-iRfl-30" value="Release" style="ellipse;whiteSpace=wrap;html=1;aspect=fixed;" vertex="1" parent="1">
          <mxGeometry x="370" y="660" width="80" height="80" as="geometry" />
        </mxCell>
        <mxCell id="YSEm-aiXdIfgKGm-iRfl-35" value="" style="edgeStyle=orthogonalEdgeStyle;rounded=0;orthogonalLoop=1;jettySize=auto;html=1;" edge="1" parent="1" source="YSEm-aiXdIfgKGm-iRfl-32" target="YSEm-aiXdIfgKGm-iRfl-34">
          <mxGeometry relative="1" as="geometry" />
        </mxCell>
        <mxCell id="YSEm-aiXdIfgKGm-iRfl-32" value="Deploy" style="ellipse;whiteSpace=wrap;html=1;aspect=fixed;" vertex="1" parent="1">
          <mxGeometry x="370" y="820" width="80" height="80" as="geometry" />
        </mxCell>
        <mxCell id="YSEm-aiXdIfgKGm-iRfl-37" value="" style="edgeStyle=orthogonalEdgeStyle;rounded=0;orthogonalLoop=1;jettySize=auto;html=1;" edge="1" parent="1" source="YSEm-aiXdIfgKGm-iRfl-34" target="YSEm-aiXdIfgKGm-iRfl-36">
          <mxGeometry relative="1" as="geometry" />
        </mxCell>
        <mxCell id="YSEm-aiXdIfgKGm-iRfl-34" value="Operate" style="ellipse;whiteSpace=wrap;html=1;aspect=fixed;" vertex="1" parent="1">
          <mxGeometry x="370" y="980" width="80" height="80" as="geometry" />
        </mxCell>
        <mxCell id="YSEm-aiXdIfgKGm-iRfl-36" value="" style="ellipse;whiteSpace=wrap;html=1;aspect=fixed;" vertex="1" parent="1">
          <mxGeometry x="370" y="1140" width="80" height="80" as="geometry" />
        </mxCell>
      </root>
    </mxGraphModel>
  </diagram>
</mxfile>
